HIERARCHY
ROOT Hips
{
	OFFSET 0.00000 0.00000 0.00000
	CHANNELS 6 Xposition Yposition Zposition Zrotation Yrotation Xrotation 
	JOINT LHipJoint
	{
		OFFSET 0 0 0
		CHANNELS 3 Zrotation Yrotation Xrotation
		JOINT LeftUpLeg
		{
			OFFSET 1.92384 -1.64427 0.83032
			CHANNELS 3 Zrotation Yrotation Xrotation
			JOINT LeftLeg
			{
				OFFSET 2.52872 -6.94761 0.00000
				CHANNELS 3 Zrotation Yrotation Xrotation
				JOINT LeftFoot
				{
					OFFSET 2.51827 -6.91890 0.00000
					CHANNELS 3 Zrotation Yrotation Xrotation
					JOINT LeftToeBase
					{
						OFFSET 0.22757 -0.62524 2.06528
						CHANNELS 3 Zrotation Yrotation Xrotation
						End Site
						{
							OFFSET 0.00000 -0.00000 1.08218
						}
					}
				}
			}
		}
	}
	JOINT RHipJoint
	{
		OFFSET 0 0 0
		CHANNELS 3 Zrotation Yrotation Xrotation
		JOINT RightUpLeg
		{
			OFFSET -2.09517 -1.64427 0.83032
			CHANNELS 3 Zrotation Yrotation Xrotation
			JOINT RightLeg
			{
				OFFSET -2.55173 -7.01082 0.00000
				CHANNELS 3 Zrotation Yrotation Xrotation
				JOINT RightFoot
				{
					OFFSET -2.50265 -6.87598 0.00000
					CHANNELS 3 Zrotation Yrotation Xrotation
					JOINT RightToeBase
					{
						OFFSET -0.22612 -0.62126 1.98677
						CHANNELS 3 Zrotation Yrotation Xrotation
						End Site
						{
							OFFSET -0.00000 -0.00000 1.04433
						}
					}
				}
			}
		}
	}
	JOINT LowerBack
	{
		OFFSET 0 0 0
		CHANNELS 3 Zrotation Yrotation Xrotation
		JOINT Spine
		{
			OFFSET 0.02839 1.68926 0.31690
			CHANNELS 3 Zrotation Yrotation Xrotation
			JOINT Spine1
			{
				OFFSET -0.01522 1.70183 0.21192
				CHANNELS 3 Zrotation Yrotation Xrotation
				JOINT Neck
				{
					OFFSET 0 0 0
					CHANNELS 3 Zrotation Yrotation Xrotation
					JOINT Neck1
					{
						OFFSET -0.04523 1.88988 0.10630
						CHANNELS 3 Zrotation Yrotation Xrotation
						JOINT Head
						{
							OFFSET 0.05172 1.78070 -0.56858
							CHANNELS 3 Zrotation Yrotation Xrotation
							End Site
							{
								OFFSET 0.01532 1.90392 -0.20434
							}
						}
					}
				}
				JOINT LeftShoulder
				{
					OFFSET 0 0 0
					CHANNELS 3 Zrotation Yrotation Xrotation
					JOINT LeftArm
					{
						OFFSET 3.25522 0.75486 0.22086
						CHANNELS 3 Zrotation Yrotation Xrotation
						JOINT LeftForeArm
						{
							OFFSET 4.85645 -0.00000 0.00000
							CHANNELS 3 Zrotation Yrotation Xrotation
							JOINT LeftHand
							{
								OFFSET 2.79874 -0.00000 0.00000
								CHANNELS 3 Zrotation Yrotation Xrotation
								JOINT LeftFingerBase
								{
									OFFSET 0 0 0
									CHANNELS 3 Zrotation Yrotation Xrotation
									JOINT LeftHandIndex1
									{
										OFFSET 0.57340 -0.00000 0.00000
										CHANNELS 3 Zrotation Yrotation Xrotation
										End Site
										{
											OFFSET 0.46229 -0.00000 0.00000
										}
									}
								}
								JOINT LThumb
								{
									OFFSET 0 0 0
									CHANNELS 3 Zrotation Yrotation Xrotation
									End Site
									{
										OFFSET 0.46935 -0.00000 0.46935
									}
								}
							}
						}
					}
				}
				JOINT RightShoulder
				{
					OFFSET 0 0 0
					CHANNELS 3 Zrotation Yrotation Xrotation
					JOINT RightArm
					{
						OFFSET -3.29079 0.52751 0.36356
						CHANNELS 3 Zrotation Yrotation Xrotation
						JOINT RightForeArm
						{
							OFFSET -4.67018 -0.00000 0.00000
							CHANNELS 3 Zrotation Yrotation Xrotation
							JOINT RightHand
							{
								OFFSET -2.65534 -0.00000 0.00000
								CHANNELS 3 Zrotation Yrotation Xrotation
								JOINT RightFingerBase
								{
									OFFSET 0 0 0
									CHANNELS 3 Zrotation Yrotation Xrotation
									JOINT RightHandIndex1
									{
										OFFSET -0.59407 -0.00000 0.00000
										CHANNELS 3 Zrotation Yrotation Xrotation
										End Site
										{
											OFFSET -0.47895 -0.00000 0.00000
										}
									}
								}
								JOINT RThumb
								{
									OFFSET 0 0 0
									CHANNELS 3 Zrotation Yrotation Xrotation
									End Site
									{
										OFFSET -0.48627 -0.00000 0.48627
									}
								}
							}
						}
					}
				}
			}
		}
	}
}
MOTION
Frames: 7
Frame Time: .0083333
12.0732 16.9118 -0.0972 711.5140 -71.4624 -678.0130 0.0000 0.0000 0.0000 -22.4130 -17.1536 -56.4934 3.0398 10.7592 31.4721 -1.8239 24.5386 -18.5808 0.0868 1.8998 5.2287 0.0000 0.0000 0.0000 24.8419 8.2350 -36.5348 -4.5980 -12.9162 39.0557 -0.2671 -20.4557 -30.7679 -0.0010 -0.2015 0.5536 6.0701 7.1905 -19.8995 -9.6239 7.1329 -17.7259 -13.1012 1.8550 -6.7055 6.6140 2.0857 -10.2698 1.5813 -2.5503 51.1108 -1.3622 -0.3431 24.1309 0.0000 -0.0000 0.0000 -71.2010 22.0955 33.7428 16.3104 -25.9397 -3.7807 -0.0000 -0.0000 1.8170 11.2905 29.4610 5.6081 -7.1250 0.0000 -0.0000 -22.1451 58.5239 -7.5606 0.0000 -0.0000 0.0000 97.2216 -21.6747 12.2122 -23.2058 34.3131 -7.2540 0.0000 0.0000 7.8938 -13.3743 -11.1868 2.6410 7.1250 -0.0000 -0.0000 12.1802 -41.1610 1.1728
12.0084 16.9180 -0.0439 711.9190 -70.9391 -678.6060 0.0000 0.0000 0.0000 -22.7592 -17.0990 -55.8385 3.0162 10.7213 31.3456 -1.7218 24.0540 -18.6165 0.0705 1.7130 4.7132 0.0000 0.0000 0.0000 24.9016 7.3182 -37.0307 -4.8674 -13.2328 40.2465 -0.0966 -20.4204 -29.5477 -0.0000 0.0100 -0.0274 5.9065 7.1165 -19.8173 -9.5681 7.0717 -17.7237 -12.9582 1.8445 -6.7805 6.6921 2.0889 -10.3765 1.5131 -2.5356 51.1892 -1.4145 -0.3177 24.2640 -0.0000 0.0000 0.0000 -71.3356 22.2630 34.0010 16.3825 -26.0366 -3.8123 -0.0000 -0.0000 1.5712 11.1614 29.4117 5.5343 -7.1250 0.0000 -0.0000 -22.2407 58.4501 -7.5555 -0.0000 0.0000 0.0000 97.3817 -21.8484 11.7798 -23.1178 34.2174 -7.2044 0.0000 0.0000 8.0787 -12.9150 -10.9027 2.4834 7.1250 -0.0000 -0.0000 12.5123 -40.8360 1.3080
11.9466 16.9236 0.0112 712.2770 -70.3705 -679.1400 0.0000 0.0000 0.0000 -23.0275 -17.1298 -55.1942 2.9945 10.6861 31.2285 -1.6282 23.6218 -18.7188 0.0622 1.6097 4.4281 0.0000 0.0000 0.0000 24.9319 6.4179 -37.6034 -5.1690 -13.5716 41.5478 0.0937 -20.3487 -28.0480 -0.0019 0.2851 -0.7835 5.9888 7.0894 -19.7772 -9.5487 7.0461 -17.6768 -12.9891 1.8362 -6.7471 6.6737 2.1268 -10.4885 1.4821 -2.4222 51.1864 -1.4016 -0.2711 24.3143 0.0000 0.0000 0.0000 -71.4070 22.2514 34.2923 16.4408 -26.1147 -3.8380 -0.0000 -0.0000 1.3126 10.9744 29.5020 5.4549 -7.1250 0.0000 -0.0000 -22.4996 58.4920 -7.6722 0.0000 0.0000 0.0000 97.4719 -21.9836 11.5070 -23.0679 34.1630 -7.1764 0.0000 0.0000 8.1189 -12.8273 -10.9009 2.4656 7.1250 -0.0000 -0.0000 12.5877 -40.8265 1.3191
11.8856 16.9267 0.0642 712.5610 -69.8001 -679.5910 0.0000 0.0000 0.0000 -23.2833 -17.1354 -54.5926 2.9784 10.6600 31.1416 -1.5428 23.2057 -18.7672 0.0504 1.4489 3.9850 0.0000 0.0000 0.0000 24.9460 5.5491 -38.2339 -5.4952 -13.9207 42.9207 0.2222 -20.0987 -26.6661 -0.0016 0.2545 -0.6992 5.8895 7.0262 -19.7146 -9.4879 6.9945 -17.6505 -12.8721 1.8302 -6.7755 6.6241 2.1160 -10.4302 1.4953 -2.3658 51.0827 -1.3634 -0.2519 24.1726 -0.0000 0.0000 0.0000 -71.9699 22.4402 33.6247 16.5153 -26.2144 -3.8708 -0.0000 -0.0000 1.9985 10.7732 29.2972 5.3194 -7.1250 0.0000 -0.0000 -22.5526 58.2600 -7.5643 -0.0000 0.0000 0.0000 97.4661 -22.2232 11.2328 -23.0563 34.1503 -7.1699 0.0000 0.0000 8.1421 -12.5649 -10.8056 2.3928 7.1250 -0.0000 -0.0000 12.7919 -40.7086 1.3792
11.8252 16.9288 0.1181 712.8070 -69.2379 -679.9960 0.0000 0.0000 0.0000 -23.5076 -17.1671 -54.0037 2.9641 10.6367 31.0643 -1.4681 22.8461 -18.8406 0.0418 1.3195 3.6284 0.0000 0.0000 0.0000 24.9022 4.8253 -38.8809 -5.8469 -14.2784 44.3643 0.4086 -20.0885 -25.0482 -0.0042 0.4186 -1.1501 5.6908 6.9610 -19.6994 -9.4019 6.9517 -17.6149 -12.6585 1.8432 -6.7759 6.6800 2.0684 -10.5097 1.3804 -2.3726 51.0451 -1.4376 -0.2433 24.1588 0.0000 -0.0000 0.0000 -71.9254 22.3667 34.4138 16.6102 -26.3410 -3.9128 -0.0000 -0.0000 1.4558 10.6075 29.4013 5.2530 -7.1250 0.0000 -0.0000 -22.7990 58.3193 -7.6854 0.0000 -0.0000 0.0000 97.5658 -22.3150 10.7125 -22.9580 34.0428 -7.1148 0.0000 0.0000 8.4471 -12.2829 -10.7007 2.3150 7.1250 -0.0000 -0.0000 13.0104 -40.5797 1.4459
11.7649 16.9329 0.1688 712.9510 -68.6498 -680.3020 0.0000 0.0000 0.0000 -23.6838 -17.1698 -53.4314 2.9511 10.6155 30.9937 -1.3828 22.4399 -18.9567 0.0358 1.2214 3.3583 0.0000 0.0000 0.0000 24.8658 4.2078 -39.5381 -6.2213 -14.6394 45.8636 0.5943 -20.1534 -23.3968 -0.0050 0.4569 -1.2554 5.5883 6.8842 -19.6374 -9.2948 6.8814 -17.6019 -12.4902 1.8282 -6.8293 6.6581 2.0698 -10.6179 1.3465 -2.3183 51.0314 -1.4379 -0.2195 24.1916 -0.0000 0.0000 0.0000 -72.0135 22.3956 34.9343 16.6983 -26.4583 -3.9520 -0.0000 -0.0000 1.1074 10.3817 29.3211 5.1266 -7.1250 0.0000 -0.0000 -22.9691 58.1967 -7.6782 -0.0000 0.0000 0.0000 97.5758 -22.5150 10.3852 -22.8976 33.9766 -7.0810 0.0000 0.0000 8.5620 -12.0235 -10.4686 2.2162 7.1250 -0.0000 -0.0000 13.1793 -40.3271 1.5491
11.7064 16.9373 0.2210 713.1200 -68.0381 -680.6070 0.0000 0.0000 0.0000 -23.8211 -17.2570 -52.8578 2.9358 10.5904 30.9106 -1.3088 22.1034 -19.1166 0.0321 1.1560 3.1781 0.0000 0.0000 0.0000 24.7695 3.6415 -40.2531 -6.6163 -15.0001 47.4077 0.7758 -20.2189 -21.5844 -0.0045 0.4327 -1.1890 5.5214 6.8085 -19.5813 -9.1994 6.8041 -17.6117 -12.3604 1.8015 -6.9048 6.4939 2.0561 -10.4839 1.4317 -2.2572 50.9163 -1.3338 -0.2173 24.0073 0.0000 0.0000 0.0000 -72.1692 22.5105 35.1814 16.8607 -26.6738 -4.0246 -0.0000 -0.0000 1.0702 10.2111 29.2921 5.0364 -7.1250 0.0000 -0.0000 -23.1207 58.1331 -7.6967 0.0000 0.0000 0.0000 97.5709 -22.7350 10.0443 -22.8194 33.8907 -7.0373 0.0000 0.0000 8.7188 -11.8337 -10.4789 2.1823 7.1250 -0.0000 -0.0000 13.3443 -40.3213 1.5713
